PathFileType	4	(X/Y/Z)	RBDS016static.trc
DataRate	CameraRate	NumFrames	NumMarkers	Units	OrigDataRate	OrigDataStartFrame	OrigNumFrames
150.000000	150.000000	4	48	mm	150.000000	56	150
Frame#	Time	L.Ankle			L.Ankle.Medial			L.ASIS			L.GTR			L.Heel.Bottom			L.Heel.Lateral			L.Heel.Top			L.HF			L.Iliac.Crest			L.Knee			L.Knee.Medial			L.MT1			L.MT2			L.MT5			L.PSIS			L.Shank.Bottom.Lateral			L.Shank.Bottom.Medial			L.Shank.Top.Lateral			L.Shank.Top.Medial			L.Thigh.Bottom.Lateral			L.Thigh.Bottom.Medial			L.Thigh.Top.Lateral			L.Thigh.Top.Medial			L.TT			R.Ankle			R.Ankle.Medial			R.ASIS			R.GTR			R.Heel.Bottom			R.Heel.Lateral			R.Heel.Top			R.HF			R.Iliac.Crest			R.Knee			R.Knee.Medial			R.MT1			R.MT2			R.MT5			R.PSIS			R.Shank.Bottom.Lateral			R.Shank.Bottom.Medial			R.Shank.Top.Lateral			R.Shank.Top.Medial			R.Thigh.Bottom.Lateral			R.Thigh.Bottom.Medial			R.Thigh.Top.Lateral			R.Thigh.Top.Medial			R.TT			
		X1	Y1	Z1	X2	Y2	Z2	X3	Y3	Z3	X4	Y4	Z4	X5	Y5	Z5	X6	Y6	Z6	X7	Y7	Z7	X8	Y8	Z8	X9	Y9	Z9	X10	Y10	Z10	X11	Y11	Z11	X12	Y12	Z12	X13	Y13	Z13	X14	Y14	Z14	X15	Y15	Z15	X16	Y16	Z16	X17	Y17	Z17	X18	Y18	Z18	X19	Y19	Z19	X20	Y20	Z20	X21	Y21	Z21	X22	Y22	Z22	X23	Y23	Z23	X24	Y24	Z24	X25	Y25	Z25	X26	Y26	Z26	X27	Y27	Z27	X28	Y28	Z28	X29	Y29	Z29	X30	Y30	Z30	X31	Y31	Z31	X32	Y32	Z32	X33	Y33	Z33	X34	Y34	Z34	X35	Y35	Z35	X36	Y36	Z36	X37	Y37	Z37	X38	Y38	Z38	X39	Y39	Z39	X40	Y40	Z40	X41	Y41	Z41	X42	Y42	Z42	X43	Y43	Z43	X44	Y44	Z44	X45	Y45	Z45	X46	Y46	Z46	X47	Y47	Z47	X48	Y48	Z48	

57	0.3733333333333334	722.7274780273438	98.27571868896484	1044.991333007813	732.0487670898438	111.1316986083984	1131.934204101563	860.1597900390625	945.004150390625	1124.766479492188	783.9150390625	881.9340209960938	1052.835327148438	644.9674072265625	40.36298370361328	1088.053466796875	669.00390625	62.22260284423828	1047.1806640625	654.3009643554688	87.94920349121094	1088.902465820313	754.1755981445313	444.66357421875	1026.39501953125	775.23583984375	1007.429809570313	1063.125610351563	757.6654663085938	503.9758911132813	1031.281494140625	730.8556518554688	481.1589050292969	1162.66259765625	861.1265258789063	60.59305572509766	1127.371337890625	865.5282592773438	70.36521911621094	1088.98681640625	828.0596313476563	52.85528182983398	1021.733947753906	663.4385986328125	967.724365234375	1181.347290039063	702.6209716796875	174.9956359863281	1039.124145507813	674.41796875	178.7461853027344	1087.012329101563	695.431884765625	254.7750091552734	1029.2587890625	669.5505981445313	259.1221313476563	1076.739013671875	746.56298828125	586.7611694335938	1028.386352539063	684.2770385742188	592.8816528320313	1066.864135742188	755.6701049804688	696.3224487304688	1027.703491210938	696.8988037109375	701.7903442382813	1065.901977539063	802.1046142578125	428.447509765625	1090.482055664063	714.6295166015625	101.1900634765625	1410.745727539063	737.6085815429688	122.501220703125	1325.768798828125	843.4322509765625	949.5670776367188	1356.8369140625	763.481201171875	888.2576293945313	1417.501098632813	639.9268798828125	41.46986389160156	1366.078002929688	668.7633056640625	64.93470764160156	1406.368408203125	652.2012939453125	92.27455139160156	1363.300170898438	741.3489990234375	450.5989685058594	1428.7314453125	758.7581176757813	1003.940185546875	1401.934936523438	741.4755249023438	513.6370849609375	1422.938842773438	729.9171142578125	485.5624084472656	1293.837158203125	855.3878173828125	61.32206344604492	1329.2333984375	862.5464477539063	70.78184509277344	1371.690307617188	824.734130859375	48.62390899658203	1438.91796875	657.5009765625	968.0333862304688	1282.970825195313	710.6175537109375	170.6368560791016	1419.793212890625	670.717529296875	175.9716796875	1387.756469726563	707.1622314453125	254.3711853027344	1435.215454101563	666.1668701171875	255.7145233154297	1401.07177734375	726.2278442382813	598.5687866210938	1431.108764648438	671.614013671875	599.6535034179688	1382.540893554688	723.3817749023438	709.2129516601563	1433.37158203125	673.4652709960938	709.49267578125	1386.282592773438	791.4038696289063	423.1980590820313	1374.455444335938	
58	0.38	722.7116088867188	98.28652954101563	1044.997192382813	732.0492553710938	111.1279449462891	1131.945190429688	860.1806030273438	945.0009155273438	1124.884887695313	783.934814453125	881.924072265625	1052.942138671875	644.96875	40.36771011352539	1088.051879882813	669.0036010742188	62.22640609741211	1047.175048828125	654.3056030273438	87.95447540283203	1088.904418945313	754.1858520507813	444.6612548828125	1026.447387695313	775.2550048828125	1007.390441894531	1063.2060546875	757.6729125976563	503.9733276367188	1031.342651367188	730.8536376953125	481.1879272460938	1162.762329101563	861.1184692382813	60.60423278808594	1127.382568359375	865.5280151367188	70.38510131835938	1089.049194335938	828.0618286132813	52.85699462890625	1021.738098144531	663.4376831054688	967.71484375	1181.419189453125	702.6326904296875	175.0152282714844	1039.145385742188	674.4306030273438	178.7504119873047	1087.03271484375	695.447021484375	254.7867126464844	1029.282836914063	669.562744140625	259.1274719238281	1076.762329101563	746.57568359375	586.7669677734375	1028.47705078125	684.2955322265625	592.8667602539063	1066.921630859375	755.7018432617188	696.3152465820313	1027.776489257813	696.9104614257813	701.7825317382813	1065.9521484375	802.103271484375	428.4412536621094	1090.552856445313	714.6278686523438	101.1833953857422	1410.751953125	737.6156005859375	122.4989929199219	1325.774291992188	843.4246215820313	949.5930786132813	1356.928344726563	763.4395141601563	888.2633056640625	1417.552856445313	639.9168701171875	41.47006607055664	1366.080078125	668.7794189453125	64.93023681640625	1406.37841796875	652.197021484375	92.26957702636719	1363.30712890625	741.3197021484375	450.5843200683594	1428.797485351563	758.7289428710938	1003.971557617188	1402.026489257813	741.4873046875	513.7307739257813	1423.26611328125	729.8987426757813	485.58544921875	1293.90625	855.379638671875	61.32345581054688	1329.241943359375	862.5425415039063	70.78952789306641	1371.698486328125	824.7236938476563	48.62387084960938	1438.909301757813	657.4983520507813	968.0345458984375	1283.052001953125	710.6155395507813	170.6013641357422	1419.784423828125	670.7092895507813	175.9716033935547	1387.77734375	707.138671875	254.3560485839844	1435.241577148438	666.1495361328125	255.7084503173828	1401.101318359375	726.2235107421875	598.5173950195313	1431.149047851563	671.5950927734375	599.6705932617188	1382.622314453125	723.3665771484375	709.2233276367188	1433.438598632813	673.44580078125	709.49609375	1386.351196289063	791.3796997070313	423.2108459472656	1374.508544921875	
59	0.3866666666666667	722.7277221679688	98.30242919921875	1044.995849609375	732.0617065429688	111.1221313476563	1131.95458984375	860.1968994140625	944.990234375	1124.99169921875	783.9510498046875	881.9025268554688	1053.05810546875	644.9725341796875	40.36911773681641	1088.0498046875	669.0042114257813	62.22942733764648	1047.18408203125	654.3015747070313	87.96453094482422	1088.911010742188	754.2132568359375	444.6701049804688	1026.514404296875	775.26611328125	1007.357543945313	1063.26806640625	757.7081909179688	503.9747619628906	1031.414672851563	730.87841796875	481.1726684570313	1162.829223632813	861.1166381835938	60.59191131591797	1127.377319335938	865.5231323242188	70.3687744140625	1088.99560546875	828.0717163085938	52.84883880615234	1021.746215820313	663.456298828125	967.7059326171875	1181.504028320313	702.6469116210938	175.0130157470703	1039.1640625	674.446044921875	178.7508087158203	1087.054565429688	695.4638671875	254.7939605712891	1029.318115234375	669.5767822265625	259.1357727050781	1076.786499023438	746.605224609375	586.7452392578125	1028.562377929688	684.3172607421875	592.8591918945313	1066.980346679688	755.7239990234375	696.3119506835938	1027.834106445313	696.9160766601563	701.7669067382813	1066.031982421875	802.1185913085938	428.4319152832031	1090.622192382813	714.6123046875	101.1855087280273	1410.757568359375	737.6136474609375	122.5104751586914	1325.78955078125	843.4107055664063	949.6141967773438	1357.028930664063	763.4093017578125	888.2646484375	1417.606079101563	639.9180297851563	41.46042251586914	1366.07666015625	668.7622680664063	64.93083190917969	1406.379272460938	652.2000122070313	92.26461791992188	1363.316528320313	741.301513671875	450.5823364257813	1428.85498046875	758.711181640625	1004.006591796875	1402.125366210938	741.49072265625	513.7435302734375	1423.317993164063	729.8907470703125	485.5939636230469	1293.972900390625	855.380615234375	61.32171249389648	1329.244262695313	862.54931640625	70.79776000976563	1371.707397460938	824.7315063476563	48.62757873535156	1438.915649414063	657.4942016601563	968.0482788085938	1283.121704101563	710.597900390625	170.5926818847656	1419.805541992188	670.7035522460938	175.9577789306641	1387.7939453125	707.1202392578125	254.3440704345703	1435.282470703125	666.1290893554688	255.7000427246094	1401.132690429688	726.2188720703125	598.5205688476563	1431.209594726563	671.5735473632813	599.6829833984375	1382.701782226563	723.3570556640625	709.2389526367188	1433.499633789063	673.43310546875	709.5217895507813	1386.410400390625	791.3723754882813	423.2095947265625	1374.570556640625	
60	0.3933333333333334	722.73193359375	98.30941772460938	1045.002197265625	732.0555419921875	111.1281509399414	1131.962158203125	860.2188720703125	944.9908447265625	1125.084838867188	783.9620971679688	881.8917846679688	1053.16943359375	644.975341796875	40.37426376342773	1088.060302734375	668.9999389648438	62.23416137695313	1047.18603515625	654.3104248046875	87.96702575683594	1088.915161132813	754.216552734375	444.6691284179688	1026.561157226563	775.275146484375	1007.313537597656	1063.330078125	757.7142944335938	503.9785766601563	1031.477661132813	730.878173828125	481.1330871582031	1162.870727539063	861.1279296875	60.60083770751953	1127.38720703125	865.5311889648438	70.36912536621094	1089.004760742188	828.0668334960938	52.85271072387695	1021.744934082031	663.4539184570313	967.6986694335938	1181.596435546875	702.6466064453125	175.0356597900391	1039.184936523438	674.4487915039063	178.7581329345703	1087.076782226563	695.47265625	254.8045654296875	1029.349487304688	669.5863037109375	259.1376037597656	1076.827270507813	746.6083374023438	586.7533569335938	1028.646728515625	684.3369140625	592.8455200195313	1067.03759765625	755.7349853515625	696.3179931640625	1027.916259765625	696.9223022460938	701.7518310546875	1066.122680664063	802.1283569335938	428.4322509765625	1090.673950195313	714.6112060546875	101.1826629638672	1410.764282226563	737.6129150390625	122.5077667236328	1325.7998046875	843.39990234375	949.6357421875	1357.1201171875	763.3955078125	888.255859375	1417.664672851563	639.9155883789063	41.46580123901367	1366.081787109375	668.7654418945313	64.92453765869141	1406.375	652.199951171875	92.26609039306641	1363.3125	741.291259765625	450.5668640136719	1428.90576171875	758.7080078125	1004.046508789063	1402.21923828125	741.4733276367188	513.7457885742188	1423.3603515625	729.861572265625	485.6168212890625	1294.022094726563	855.3738403320313	61.33305358886719	1329.244140625	862.5451049804688	70.80046844482422	1371.706298828125	824.7136840820313	48.62747955322266	1438.924194335938	657.4852294921875	968.0475463867188	1283.203002929688	710.589111328125	170.5853729248047	1419.820068359375	670.6946411132813	175.9487915039063	1387.80859375	707.111328125	254.3390808105469	1435.303466796875	666.1138305664063	255.6990814208984	1401.154418945313	726.205322265625	598.5283813476563	1431.263427734375	671.5579223632813	599.6901245117188	1382.755981445313	723.3525390625	709.2469482421875	1433.548950195313	673.4238891601563	709.5217895507813	1386.486206054688	791.353271484375	423.209228515625	1374.631103515625	
